<?xml version="1.0" encoding="utf-8"?>
<!-- Generator: Adobe Illustrator 24.0.0, SVG Export Plug-In . SVG Version: 6.00 Build 0)  -->
<svg version="1.1" id="layer_1" xmlns="http://www.w3.org/2000/svg" xmlns:xlink="http://www.w3.org/1999/xlink" x="0px" y="0px"
	 viewBox="0 0 1299 868.6" style="enable-background:new 0 0 1299 868.6;" xml:space="preserve">
<style type="text/css">
	.st0{fill:url(#SVGID_1_);}
	.st1{fill:url(#SVGID_2_);}
	.st2{fill:#04429B;}
	.st3{fill:#004F95;}
	.st4{fill:#00387D;}
	.st5{fill:#01378F;}
	.st6{fill:#D58E4F;}
	.st7{fill:#FC9206;}
	.st8{fill:#EDBB79;}
	.st9{fill:url(#SVGID_3_);}
	.st10{fill:#002C74;}
	.st11{fill:url(#SVGID_4_);}
	.st12{fill:url(#SVGID_5_);}
	.st13{fill:#021013;}
	.st14{fill:url(#SVGID_6_);}
	.st15{fill:url(#SVGID_7_);}
	.st16{fill:url(#SVGID_8_);}
	.st17{fill:url(#SVGID_9_);}
	.st18{fill:url(#SVGID_10_);}
	.st19{fill:url(#SVGID_11_);}
	.st20{fill:url(#SVGID_12_);}
	.st21{fill:#FFFFFF;}
	.st22{fill:url(#SVGID_13_);}
	.st23{fill:url(#SVGID_14_);}
</style>
<g>
	<g>
		
			<linearGradient id="SVGID_1_" gradientUnits="userSpaceOnUse" x1="1154.8524" y1="-666.0295" x2="-259.8175" y2="-1194.8138" gradientTransform="matrix(1 0 0 1 0 1246)">
			<stop  offset="0" style="stop-color:#00A4F7"/>
			<stop  offset="1" style="stop-color:#005EF4"/>
		</linearGradient>
		<path class="st0" d="M651.6,72.7C530.2,87.7,440.5,16,307.9,19.5S-50.5,133,10.2,499.8c46.9,283.6,339.6,297.5,501.7,246.5
			c201.1-63.2,386.5,134.3,626.2-48.6s193.8-518.5-20.4-643.5S773,57.6,651.6,72.7z"/>
		
			<linearGradient id="SVGID_2_" gradientUnits="userSpaceOnUse" x1="463.163" y1="-746.0734" x2="1386.8188" y2="-543.4871" gradientTransform="matrix(1 0 0 1 0 1246)">
			<stop  offset="0" style="stop-color:#00A4F7"/>
			<stop  offset="1" style="stop-color:#005EF4"/>
		</linearGradient>
		<path class="st1" d="M1115.3,369.1v95.8H5.2c1.4,11.4,3,23,5,34.9c46.9,283.6,339.6,297.5,501.7,246.5
			c201.1-63.2,386.5,134.3,626.2-48.6c83.9-64.1,132.9-146.9,151.8-232.8h-35.5v-95.8L1115.3,369.1L1115.3,369.1z"/>
		<path class="st2" d="M312.2,269.5c-16.8,0-30.5,13.6-30.5,30.5l0,0c0,16.8,13.6,30.5,30.5,30.5h86.7c16.8,0,30.5-13.6,30.5-30.5
			l0,0c0-16.8-13.6-30.5-30.5-30.5H312.2z"/>
		<path class="st2" d="M220.8,281.9v27.5c0,7.3,6,13.3,13.3,13.3s13.3-6,13.3-13.3v-27.5c0-7.3-6-13.3-13.3-13.3
			S220.8,274.6,220.8,281.9z"/>
		<path class="st3" d="M89.6,120h1109.7c-1.3-1.5-2.7-2.9-4.1-4.4H93.7C92.3,117.1,90.9,118.6,89.6,120z"/>
		<path class="st2" d="M253.2,566.5c-10.8,0-19.5,8.7-19.5,19.5v19.4c0,10.8,8.7,19.5,19.5,19.5h156.7c10.8,0,19.5-8.7,19.5-19.5
			V586c0-10.8-8.7-19.5-19.5-19.5H253.2z"/>
		<polygon class="st2" points="184.5,363.4 79.7,363.4 174.6,519.5 		"/>
		<rect x="164.8" y="309.9" class="st3" width="593.7" height="270.6"/>
		<polygon class="st3" points="1071.1,424 1098.4,377 1061.3,314.8 1041.7,330.1 1074.4,379.2 1058.1,422.9 		"/>
		<polygon class="st3" points="983.8,314.8 946.7,377 974,424 987.1,422.9 970.7,379.2 1003.5,330.1 		"/>
		<path class="st4" d="M1050.4,287.5c-16.4,1.1-29.5-2.2-52.4,1.1s-26.2,47.8-8.7,46.9c22.9-1.1,34.9,2.2,61.1,0
			C1076.6,333.4,1066.8,286.5,1050.4,287.5z"/>
		<path class="st4" d="M1031.9,298.5V15.4c-6.6-2.1-13.2-4-19.6-5.6v288.7H1031.9z"/>
		<rect x="993" y="538" class="st3" width="122.5" height="122.5"/>
		<g>
			<polygon class="st5" points="801.9,330.4 804.4,303.7 796.8,299.9 790.5,324 			"/>
			<path class="st5" d="M720.7,299.9h-12.9c0,0,5.1,30.5,14,35.6s2.5-6.4,2.5-20.3S720.7,299.9,720.7,299.9z"/>
			<path class="st6" d="M761.2,407.9c26.7,1.3,49.6-38.1,49.6-38.1l-14.1-41.3c0,0-0.6-13.5,0.4-28c1-14.6-37.2-15.8-37.2-15.8
				s-39.7,11.3-39.4,14c0.9,7.1,2.4,27.2-1.3,41.9C714.2,360.9,734.5,406.6,761.2,407.9z"/>
			<path class="st7" d="M483.1,200.2c87.1-4,154.8-22.3,154.8-22.3s12.7-17.8,7.6-22.9C608.7,118.1,511.4,111.9,483.1,200.2z"/>
			<path class="st8" d="M823.5,200.7c-19.1-17.8-1.3-20.3-35.6-17.8s-80.1,10.2-80.1,10.2l-30.5,30.5c-8.9-1.3-6.4,31.8,20.3,35.6
				c19.7,48.9,44.5,63.6,66.1,63.6c20.3,0,45.8-34.3,58.5-63.6c24.2,5.1,34.3-28,21.6-36.9C831.1,213.4,842.6,218.5,823.5,200.7z"/>
			
				<linearGradient id="SVGID_3_" gradientUnits="userSpaceOnUse" x1="772.2485" y1="-882.4859" x2="749.37" y2="-423.0096" gradientTransform="matrix(1 0 0 1 0 1246)">
				<stop  offset="0" style="stop-color:#0046E6"/>
				<stop  offset="1" style="stop-color:#002C74"/>
			</linearGradient>
			<path class="st9" d="M931.5,566.8c3.8-29.2,2.5-152.5-26.7-185.6c-29.2-33-100.4-66.1-100.4-66.1s5.1,53.4-21.6,72.5
				c-26.7,19.1-44.5-6.4-44.5-6.4l-36.8-58.5c0,0-67.4,38.1-78.8,64.8c-11.4,26.7-34.3,147.4-28,171.6c6.4,24.2,35.6,48.3,35.6,48.3
				s-11.4,127.1-6.4,231.3c103,47,175.4-20.3,258,0c0,0,11.4-118.2,6.4-180.5c-5.1-62.3-17.8-101.7-17.8-101.7
				S927.7,596,931.5,566.8z"/>
			<path class="st6" d="M751.7,192.5l-53.4,12.7l-2.5,16.5c28,26.7,47,19.1,66.1,17.8c19.1-1.3,36.9,8.9,61-10.2
				c24.2-19.1-8.9-36.9-8.9-36.9h-62.3L751.7,192.5L751.7,192.5z"/>
			<path class="st10" d="M660.8,441c-2.5-8.9-12.7,87.7-6.4,96.6c6.4,8.9,53.4,29.2,53.4,29.2s16.5-12.7,33-25.4
				c-21.6-11.4-64.8-20.3-68.6-26.7C668.4,508.3,663.3,449.9,660.8,441z"/>
			<path class="st10" d="M864.2,447.3c0,8.9-7.6,106.8-7.6,106.8S882,577,882,529.9C882,465.1,864.2,438.4,864.2,447.3z"/>
			<path class="st10" d="M759.3,566.2c-45.8,7.6-64.8,40.7-115.7,81.3c-6.3,5-12.1,10.7-17.4,16.6c-1.5,26.4-3,59.7-3.5,94.6
				l57.7-66.7c0,0,53.4,11.4,92.8-6.4c36.9-16.7,81.6,27.9,116.3,5.6c-0.1-11.9-0.5-23.1-1.3-32.9c-1.8-22.1-4.6-41.3-7.4-56.9
				c-23.8,2.9-12.3-87.4-12.3-87.4S805.1,558.5,759.3,566.2z"/>
			
				<linearGradient id="SVGID_4_" gradientUnits="userSpaceOnUse" x1="807.5268" y1="-656.5074" x2="932.7523" y2="-656.5074" gradientTransform="matrix(1 0 0 1 0 1246)">
				<stop  offset="0" style="stop-color:#FED302"/>
				<stop  offset="1" style="stop-color:#FC9206"/>
			</linearGradient>
			<path class="st11" d="M815.9,632.9c11.4,8.9,36.9,21.6,55.9,14c19.1-7.6,34.3-22.9,61-61C927.7,523.6,882,530,882,530
				c-19.1,22.9-36.9,20.3-48.3,26.7c-11.4,6.4-4,14.9-1.3,14c3.8-1.3,7.6-2.5,12.7-3.8c6.3-1.6,11.4-3.8,8.9,0s-7.6,14-21.6,14
				s-11.4-6.4-14-5.1c-2.5,1.3-8.9,5.1-6.4,14c-5.1,2.5-2.5,11.4-2.5,11.4s-5.1,7.6,1.3,14C810.8,615.1,804.4,624,815.9,632.9z"/>
			
				<linearGradient id="SVGID_5_" gradientUnits="userSpaceOnUse" x1="682.8964" y1="-651.2026" x2="798.9565" y2="-651.2026" gradientTransform="matrix(1 0 0 1 0 1246)">
				<stop  offset="0" style="stop-color:#FED302"/>
				<stop  offset="1" style="stop-color:#FC9206"/>
			</linearGradient>
			<path class="st12" d="M795.5,574.4c-3.8,0-22.9-2.5-28-3.8s12.7-2.5,19.1-2.5s3.8-16.5-14-14s-40.7,12.7-40.7,12.7l-45.8,34.3
				l-3.3,30.3c0,0,51.5,6,70.6,4c24.2-2.5,36.9-11.4,35.6-20.3c6.4-6.4,3.8-11.4,3.8-11.4c5.1-6.4,2.5-10.2,2.5-10.2
				C800.6,584.6,799.4,574.4,795.5,574.4z"/>
			<path class="st13" d="M850.2,407.9c-2.5,1.3-141.1,96.6-146.2,101.7c-5.1,5.1-2.5,35.6,3.8,31.8s101.7-68.7,101.7-68.7
				s36.9-25.4,44.5-33C861.6,432.1,852.7,406.6,850.2,407.9z"/>
			
				<linearGradient id="SVGID_6_" gradientUnits="userSpaceOnUse" x1="308.5577" y1="-708.9249" x2="611.0773" y2="-414.0318" gradientTransform="matrix(1 0 0 1 0 1246)">
				<stop  offset="0" style="stop-color:#0046E6"/>
				<stop  offset="1" style="stop-color:#002C74"/>
			</linearGradient>
			<path class="st14" d="M428.2,425.7c0,0-39.4,30.5-67.4,108s-38.1,307.6-39.4,317.8c71.2-20.3,132.2,53.4,247.9-7.6
				c8.9-1.3,8.9-175.4,10.2-236.4s-10.2-118.2-10.2-118.2l-54.1-46L428.2,425.7z"/>
			<path class="st8" d="M461.2,396.5c0,35.6,85.2,57.2,85.2,57.2s2.5-25.4,12.7-72.5c33,25.4,62.3-38.1,62.3-38.1s6.4,5.1,10.2,0
				s2.5-24.2,6.4-43.2c3.8-19.1,5.1-40.7,5.1-47l-110.6-15.3l-45.8,61C486.7,298.6,475.2,343.1,461.2,396.5z"/>
			<path class="st10" d="M507.6,751.7c37.5,46.7,56.6,48.5,68.1,39.7c1.1-23.8,1.7-53,2.2-81.9c-3-10.4-5.5-17.6-5.5-17.6
				l-134.7-103C437.7,589,455.5,686.9,507.6,751.7z"/>
			<path class="st10" d="M556.6,283.3c0,0,22.9,7.6,68.6-15.3c0,0,6.4,12.7,31.8,15.3c-8.9-8.9-14-30.5-14-30.5l-91.5-25.4
				l-78.8,10.2c0,0-15.5,43.5,10.5,74.7c4.1,18.8,24.4,17.5,20,14.3c-7-5.1-9-10.5-8.9-26.7c0.2-20.4,14-34.3,26.7-15.3
				c3.8,11.4,0,31.8,5.1,26.7c17.8-12.7,17.8-34.3,17.8-34.3s12.7,6.4,33-8.9C565.5,282.1,556.6,283.3,556.6,283.3z"/>
			
				<linearGradient id="SVGID_7_" gradientUnits="userSpaceOnUse" x1="461.2619" y1="-1045.866" x2="676.8788" y2="-1045.866" gradientTransform="matrix(1 0 0 1 0 1246)">
				<stop  offset="0" style="stop-color:#FED302"/>
				<stop  offset="1" style="stop-color:#FC9206"/>
			</linearGradient>
			<path class="st15" d="M476.5,232.5c-8.9,0-20.3,11.4-12.7,11.4c0,0,204.6,16.5,211,17.8c6.4,1.3-2.5-11.4-15.3-17.8
				C667.2,106.7,485.4,104.1,476.5,232.5z"/>
			<path class="st6" d="M504.5,285.9c-6.4,3.8-5.1,12.7-2.5,10.2c2.5-2.5,8.4-4.7,10.2-5.1C518.4,289.7,510.8,282.1,504.5,285.9z"/>
			<path class="st6" d="M507,306.2c1.3,8.9,3.8,11.4,7.6,0C517.1,298.9,505.7,297.3,507,306.2z"/>
			<g>
				<path class="st13" d="M636.5,291.9c-10.2-3.7-17.9-7-24-9.7c-13.8-6-22.1-9.6-27.9,0.5c-0.5,0.9-1.2,2-2,3.2
					c-4.4,6.8-10.9,17.1-8.1,27.3c1.5,5.6,5.7,10.1,12.3,13.4c14.9,7.4,22.5,9.6,28,11.2c2.1,0.6,3.8,1.1,5.4,1.7
					c2.3,0.9,4.3,1.4,6.1,1.4c7.1,0,10.3-7.1,14.6-16.8c1-2.2,2-4.2,2.9-6.1c3.3-6.7,5.9-12,3.7-17.5
					C645.5,295.7,640.2,293.3,636.5,291.9z M634.6,313.5c-0.9,1.9-2,4.1-3.1,6.5c-1.2,2.6-4.1,9.3-5.6,10.7c-0.3-0.1-0.9-0.2-2-0.7
					c-2.1-0.8-4.1-1.4-6.4-2.1c-5.2-1.5-12.3-3.5-26.3-10.5c-4-2-6.3-4.3-7-7c-1.6-5.8,3.5-13.8,6.9-19.1c0.8-1.3,1.6-2.5,2.3-3.6
					c0.5-1,0.9-1.1,0.9-1.1c1.4-0.6,8.2,2.3,14.1,4.9c5.9,2.6,14.1,6.1,24.6,9.9c4.4,1.6,4.9,2.8,5,2.9
					C638.5,305.6,636.3,310,634.6,313.5z"/>
			</g>
			<g>
				<path class="st13" d="M528,275.7c4.6,0,12.6,0.6,15.2,1.9c3.5,1.8,23.8,14.4,36.6,22.5l6.1-9.7c-3.3-2.1-32.4-20.4-37.6-23
					c-6-3-18-3.1-20.4-3.1v11.4L528,275.7L528,275.7z"/>
			</g>
			
				<linearGradient id="SVGID_8_" gradientUnits="userSpaceOnUse" x1="583.5447" y1="-773.8807" x2="423.3872" y2="-862.857" gradientTransform="matrix(1 0 0 1 0 1246)">
				<stop  offset="0" style="stop-color:#1D96E9"/>
				<stop  offset="1" style="stop-color:#0071F5"/>
			</linearGradient>
			<path class="st16" d="M429.5,415.5c0,0,68.6,39.4,141.1,63.6c-1.3-19.1-5.1-35.6-7.6-45.8L453.7,371
				C429.5,396.5,429.5,415.5,429.5,415.5z"/>
			<path class="st8" d="M809.5,489.3c3.8-3.8,6.4-19.1,0-16.5s-41.9,29.2-50.8,34.3c-8.9,5.1-16.5-5.1-6.4-6.4
				c10.2-1.3,15.3-16.5,7.6-16.5c-7.6,0-16.5,1.3-22.9,8.9c-6.4,7.6-8.9,41.9-14,45.8c-5.1,3.8-52.1,35.6-52.1,35.6l32.5,27
				c0,0,22.1-19.4,42.5-34.6c20.3-15.3,44.5-25.4,57.2-35.6c12.7-10.2,10.2-24.2,10.2-24.2S817.1,494.3,809.5,489.3z"/>
			
				<linearGradient id="SVGID_9_" gradientUnits="userSpaceOnUse" x1="752.1355" y1="-709.364" x2="482.6643" y2="-602.5924" gradientTransform="matrix(1 0 0 1 0 1246)">
				<stop  offset="0" style="stop-color:#1D96E9"/>
				<stop  offset="1" style="stop-color:#0071F5"/>
			</linearGradient>
			<path class="st17" d="M532.4,526.1c0,0-45.8-3.8-63.6,6.4S438.3,591,438.3,591s52.1,68.6,78.8,99.1
				c26.7,30.5,45.8,44.5,71.2,26.7s119.5-109.3,119.5-109.3L676,563c-11.4,6.4-38.1,26.7-87.7,66.1
				C573.1,599.8,532.4,526.1,532.4,526.1z"/>
			<g>
				<path class="st13" d="M791.9,218.6c-8.7,1.9-13.9,4-18.2,5.7c-4.6,1.9-7.4,3-12.5,3c-5,0-7.4-1.1-11.5-2.9c-4-1.8-9-4-18-5.9
					c-12.7-2.7-21.4-1.6-26.5,3.5c-4.4,4.4-5.6,11.2-3.7,20.3l0.5,2.2c3.7,17.2,5.9,23.2,25.7,24.6c4.8,0.3,8.7,0.5,11.9,0.5
					c9.1,0,12.9-1.3,16.7-3.9c1.2-0.8,4.3-2.9,5.4-3.1c0.7,0.3,2.5,1.7,3.9,2.8c6,4.8,8.4,4.6,15.7,3.1c2.8-0.6,6.6-1.3,12.3-2.1
					c19.1-2.5,21.2-4.3,24.9-20.9c0.3-1.4,0.6-2.9,1-4.6c2.1-9.1,1.1-15.5-2.9-19.7C810.7,215.5,800.3,216.8,791.9,218.6z
					 M809.4,228.7c1.4,1.4,1.4,5.1,0.3,10.2c-0.4,1.7-0.7,3.3-1.1,4.7c-1.2,5.4-2,9-3.3,10.1c-1.5,1.3-6.1,2-13,2.9
					c-6,0.8-10,1.6-12.9,2.2c-2.2,0.4-4.1,0.8-4.7,0.7c-0.5-0.1-2.1-1.4-2.7-1.8c-8.4-6.7-11.5-6.7-21.2-0.3
					c-2.3,1.5-4.5,3-22.2,1.7c-7.1-0.5-10.7-1.4-12.3-3.2c-1.8-2-2.8-6.6-4.2-13.4l-0.6-2.2c-0.8-3.8-1.3-8.8,0.9-11
					c0.9-0.9,2.9-2,7.3-2c2.5,0,5.7,0.3,9.9,1.2c7.9,1.7,12.2,3.6,16,5.3c4.6,2,8.5,3.7,15.6,3.7s11.4-1.8,16.4-3.8
					c4.1-1.7,8.6-3.5,16.4-5.2C805.4,226.1,808.5,227.9,809.4,228.7z"/>
			</g>
			<path class="st10" d="M704.7,270c-6.4-20.3-0.2-58-0.2-58l-13.2-36.7c0,0-10.2,8.9-14,25.4s0,22.9,0,22.9s5.1-2.5,11.4,3.8
				C688.1,258.6,705.9,276.3,704.7,270z"/>
			<path class="st10" d="M833.7,227.4c6.4-8.9,8.9-5.1,8.9-5.1s3.8-16.5-2.5-33.7s-73.7-8.3-73.7-8.3l51.9,27.4
				c0,0,0.9,44.4-1.7,60.9C822.9,263.6,826.7,253.5,833.7,227.4z"/>
			
				<linearGradient id="SVGID_10_" gradientUnits="userSpaceOnUse" x1="724.0347" y1="-829.6088" x2="704.9694" y2="-907.7771" gradientTransform="matrix(1 0 0 1 0 1246)">
				<stop  offset="0" style="stop-color:#1D96E9"/>
				<stop  offset="1" style="stop-color:#0071F5"/>
			</linearGradient>
			<path class="st18" d="M695.1,322.7c-1.3,14-10.2,68.6-10.2,68.6c17.8,2.5,47,12.7,68.6,10.2c-2.5-2.5-45.8-101.7-45.8-101.7
				S696.4,308.8,695.1,322.7z"/>
			
				<linearGradient id="SVGID_11_" gradientUnits="userSpaceOnUse" x1="789.7097" y1="-800.5576" x2="829.7471" y2="-960.707" gradientTransform="matrix(1 0 0 1 0 1246)">
				<stop  offset="0" style="stop-color:#1D96E9"/>
				<stop  offset="1" style="stop-color:#0071F5"/>
			</linearGradient>
			<path class="st19" d="M804.4,303.7l-30.5,97.9c38.1,2.5,45.8-17.8,59.7-24.2c0,0-10.4-41.8-17.8-58.5
				C810.8,307.5,804.4,303.7,804.4,303.7z"/>
			
				<linearGradient id="SVGID_12_" gradientUnits="userSpaceOnUse" x1="762.3524" y1="-1167.9852" x2="758.5394" y2="-1026.9012" gradientTransform="matrix(1 0 0 1 0 1246)">
				<stop  offset="0" style="stop-color:#FED302"/>
				<stop  offset="1" style="stop-color:#FC9206"/>
			</linearGradient>
			<path class="st20" d="M843.8,170.2C826,60.9,691.3,63.4,673.5,177.8c-6.4-2.5-14,5.1-11.4,7.6c0,0,41.9,39.3,99.1,38.1
				c61-1.3,94.1-47,96.6-50.8C854,167.7,845.1,168.9,843.8,170.2z"/>
			<path class="st7" d="M741.2,92.7c0,0,4.3,26.1,6.1,27.9c3.8,3.8,18.1,3.2,22.9,0c3.8-2.5,5.1-21.6,5.1-29.2c0,0,4-7.6-15.3-7.6
				C738.3,83.8,741.2,92.7,741.2,92.7z"/>
			<path class="st6" d="M676.7,234.7c1.1-1.1,5-0.6,7.8,2.2c2.2,2.2,2.2-5.6-4.5-8.9C673.3,224.6,675.6,235.8,676.7,234.7z"/>
			<path class="st6" d="M683.7,245.7c3.7,5.5,5.5,7.4,3.7-3.7C686.5,236.9,680,240.2,683.7,245.7z"/>
			<path class="st6" d="M841.1,228c-6.7,3.3-6.7,11.2-4.5,8.9c2.8-2.8,6.7-3.3,7.8-2.2S847.8,224.6,841.1,228z"/>
			<path class="st6" d="M833.8,242.1c-1.8,11.1,0,9.2,3.7,3.7C841.1,240.2,834.6,236.9,833.8,242.1z"/>
			<path class="st6" d="M768.2,273.8c-3.8-1.3-5.1-2.5-8.9-2.5c-3.8,0-3.8,2.5-7.6,2.5C759.3,285.2,759.3,285.2,768.2,273.8z"/>
			<path class="st6" d="M758,296.7c-3.8,1.3-2.5,2.5,0,2.5s14-1.3,16.5-2.5c2.5-1.3,5.1-5.1,0-5.1
				C769.5,291.6,760.7,295.8,758,296.7z"/>
		</g>
		<g>
			<path class="st4" d="M1042,753.3c31.1-12.4,63.1-30.4,96.1-55.6c9.2-7,18-14.3,26.4-21.7v-15.4H1042V753.3z"/>
			<path class="st3" d="M883.4,776.5c39.7,2.7,80.3,0.4,122.5-11.1V660.5H883.4V776.5z"/>
		</g>
		<path class="st21" d="M401.6,211.4c1.2,0,2.2-1,2.2-2.2v-18.9c0-1.2-1-2.2-2.2-2.2h-9.9c-0.8-1.9-0.8-2-1.6-3.9l7-7
			c0.9-0.9,0.9-2.3,0-3.2l-13.3-13.3c-0.9-0.9-2.3-0.9-3.2,0l-7,7c-1.9-0.8-2-0.8-3.9-1.6v-9.9c0-1.2-1-2.2-2.2-2.2h-19
			c-1.2,0-2.2,1-2.2,2.2v9.9c-1.9,0.8-2,0.8-3.9,1.6l-7-7c-0.9-0.9-2.3-0.9-3.2,0L318.9,174c-0.9,0.9-0.9,2.3,0,3.2l7,7
			c-0.8,1.9-0.8,2-1.6,3.9h-9.9c-1.2,0-2.2,1-2.2,2.2v18.9c0,1.2,1,2.2,2.2,2.2h9.9c0.8,1.9,0.8,2,1.6,3.9l-7,7
			c-0.9,0.9-0.9,2.3,0,3.2l13.3,13.3c0.9,0.9,2.3,0.9,3.2,0l7-7c1.9,0.8,2,0.8,3.9,1.6v9.9c0,1.2,1,2.2,2.2,2.2h18.9
			c1.2,0,2.2-1,2.2-2.2v-9.9c1.9-0.8,2-0.8,3.9-1.6l7,7c0.9,0.9,2.3,0.9,3.2,0l13.3-13.3c0.9-0.9,0.9-2.3,0-3.2l-7-7
			c0.8-1.9,0.8-2,1.6-3.9H401.6z M358,214.1c-7.9,0-14.4-6.4-14.4-14.4c0-7.9,6.4-14.4,14.4-14.4c7.9,0,14.4,6.4,14.4,14.4
			C372.4,207.6,365.9,214.1,358,214.1z"/>
		<path class="st21" d="M927.6,205.5c0.6,0,1.1-0.5,1.1-1.1V195c0-0.6-0.5-1.1-1.1-1.1h-5c-0.4-0.9-0.4-1-0.8-1.9l3.5-3.5
			c0.4-0.4,0.4-1.2,0-1.6l-6.7-6.7c-0.4-0.4-1.2-0.4-1.6,0l-3.5,3.5c-0.9-0.4-1-0.4-1.9-0.8v-5c0-0.6-0.5-1.1-1.1-1.1h-9.4
			c-0.6,0-1.1,0.5-1.1,1.1v5c-0.9,0.4-1,0.4-1.9,0.8l-3.5-3.5c-0.4-0.4-1.2-0.4-1.6,0l-6.7,6.7c-0.4,0.4-0.4,1.2,0,1.6l3.5,3.5
			c-0.4,0.9-0.4,1-0.8,1.9h-5c-0.6,0-1.1,0.5-1.1,1.1v9.4c0,0.6,0.5,1.1,1.1,1.1h5c0.4,0.9,0.4,1,0.8,1.9l-3.5,3.5
			c-0.4,0.4-0.4,1.2,0,1.6l6.7,6.7c0.4,0.4,1.2,0.4,1.6,0l3.5-3.5c0.9,0.4,1,0.4,1.9,0.8v5c0,0.6,0.5,1.1,1.1,1.1h9.4
			c0.6,0,1.1-0.5,1.1-1.1v-5c0.9-0.4,1-0.4,1.9-0.8l3.5,3.5c0.4,0.4,1.2,0.4,1.6,0l6.7-6.7c0.4-0.4,0.4-1.2,0-1.6l-3.5-3.5
			c0.4-0.9,0.4-1,0.8-1.9H927.6z M905.8,206.9c-4,0-7.2-3.2-7.2-7.2s3.2-7.2,7.2-7.2s7.2,3.2,7.2,7.2S909.8,206.9,905.8,206.9z"/>
		<path class="st3" d="M184.5,735.6v-166h-19.6v156.5C171.3,729.5,177.8,732.7,184.5,735.6z"/>
		<g>
			<path class="st2" d="M285.2,360.5v128.8c0,2.8,2.3,5.2,5.2,5.2s5.2-2.3,5.2-5.2V360.5c0-2.8-2.3-5.2-5.2-5.2
				S285.2,357.6,285.2,360.5z"/>
		</g>
		
			<linearGradient id="SVGID_13_" gradientUnits="userSpaceOnUse" x1="329.4495" y1="-726.1533" x2="289.9623" y2="-846.3317" gradientTransform="matrix(1 0 0 1 0 1246)">
			<stop  offset="0" style="stop-color:#00A4F7"/>
			<stop  offset="1" style="stop-color:#005EF4"/>
		</linearGradient>
		<circle class="st22" cx="290.8" cy="402.1" r="21"/>
		
			<linearGradient id="SVGID_14_" gradientUnits="userSpaceOnUse" x1="237.3352" y1="-795.132" x2="194.4143" y2="-906.7261" gradientTransform="matrix(1 0 0 1 0 1246)">
			<stop  offset="0" style="stop-color:#FED302"/>
			<stop  offset="1" style="stop-color:#FC9206"/>
		</linearGradient>
		<circle class="st23" cx="195" cy="340.7" r="10.3"/>
		<path class="st2" d="M285.2,623.6v24c0,7.3,6,13.3,13.3,13.3s13.3-6,13.3-13.3v-24c0-7.3-6-13.3-13.3-13.3
			S285.2,616.2,285.2,623.6z"/>
	</g>
</g>
</svg>
